<?xml version="1.0" encoding="utf-8"?>
<!-- Generator: Adobe Illustrator 13.0.0, SVG Export Plug-In . SVG Version: 6.00 Build 14948)  -->
<!DOCTYPE svg PUBLIC "-//W3C//DTD SVG 1.1//EN" "http://www.w3.org/Graphics/SVG/1.1/DTD/svg11.dtd">
<svg version="1.1" id="Google_x2B_" xmlns="http://www.w3.org/2000/svg" xmlns:xlink="http://www.w3.org/1999/xlink" x="0px"
	 y="0px" width="90px" height="90px" viewBox="0 0 90 90" enable-background="new 0 0 90 90" xml:space="preserve">
<g>
	<polyline fill="#FFFFFF" points="59.922,15.787 66.437,15.787 66.437,30.84 81.687,30.84 81.687,37.16 66.437,37.16 66.437,52.345 
		59.922,52.345 59.922,37.16 44.725,37.16 44.725,30.84 59.922,30.84 59.922,15.787 	"/>
	
		<linearGradient id="SVGID_1_" gradientUnits="userSpaceOnUse" x1="-0.0034" y1="89.998" x2="0.9966" y2="89.998" gradientTransform="matrix(0 -7.421 7.421 0 -644.8547 99.7805)">
		<stop  offset="0" style="stop-color:#F5F6F5"/>
		<stop  offset="1" style="stop-color:#FFFFFF"/>
	</linearGradient>
	<path fill="url(#SVGID_1_)" d="M18.359,52.345c-10.307,0-14.538-11.802-14.538-19.78c0-3.104,0.313-6.315,2.352-8.818
		c1.92-2.383,5.272-3.931,8.392-3.931c9.941,0,14.962,13.342,14.962,21.921c0,1.718-0.882,5.076-3.13,7.627
		C24.424,51.589,21.354,52.345,18.359,52.345z M33.652,67.462l-4.32-3.328c-1.315-1.075-3.113-2.504-3.113-5.122
		c0-2.625,1.797-4.296,3.354-5.842c5.033-3.925,9.724-8.102,9.724-16.916c0-8.046-4.39-12.564-7.331-15.091c0.987,0,7.343,0,7.343,0
		l6.728-5.376H20.708C14.424,15.903,6.831,16.837,0,22.438v30.808c3.285,2.704,6.88,3.856,12.319,3.856
		c1.202,0,2.515-0.123,3.836-0.239c-0.598,1.431-1.198,2.624-1.198,4.649c0,3.69,1.915,5.949,3.595,8.098
		C13.971,69.917,6.842,70.053,0,72.963v6.246c2.473-3.329,5.556-3.727,7.287-4.354c5.032-1.669,11.505-1.908,12.588-1.908
		c1.191,0,1.792,0,2.747,0.123c9.113,6.436,14.972,9.643,14.972,15.729c0,0.642,0.001,0.864-0.022,1.201l7.169-0.006
		c0.705-2.248,1.069-3.643,1.069-5.845C45.81,75.928,38.922,71.871,33.652,67.462"/>
</g>
</svg>
